PathFileType	4	(X/Y/Z)	C:/Users/beibeiliu/ov580/test_trc/User3\sequence.26_training_dense_left.trc
DataRate	CameraRate	NumFrames	NumMarkers	Units	OrigDataRate	OrigDataStartFrame	OrigNumFrames
120	120	11	19	mm	120	52	102
Frame#	Time	ThumbCMC			ThumbMCP			ThumbIP			ThumbTip			IndexMCP			IndexPIP			IndexTip			MiddleMCP			MiddlePIP			MiddleTip			RingMCP			RingPIP			RingTip			PinkyMCP			PinkyPIP			PinkyTip			BackHand1			BackHand2			BackHand3	
		X0	Y0	Z0	X1	Y1	Z1	X2	Y2	Z2	X3	Y3	Z3	X4	Y4	Z4	X5	Y5	Z5	X6	Y6	Z6	X7	Y7	Z7	X8	Y8	Z8	X9	Y9	Z9	X10	Y10	Z10	X11	Y11	Z11	X12	Y12	Z12	X13	Y13	Z13	X14	Y14	Z14	X15	Y15	Z15	X16	Y16	Z16	X17	Y17	Z17	X18	Y18	Z18	
51	0.425	-135.72	-4.84647	25.8738	-122.016	-2.59662	-5.55196	-119.835	-2.33264	-34.8798	-121.569	-5.3087	-63.3534	-177.737	24.5012	-37.5483	-172.426	21.406	-68.5828	-156.912	3.63891	-88.5885	-196.813	15.4805	-40.1475	-191.613	15.4581	-71.3991	-170.415	-14.6134	-93.4639	-204.661	-0.201642	-36.1503	-200.921	-5.63938	-67.7881	-185.489	-26.7357	-82.6662	-213.057	-25.0419	-27.0971	-205.994	-26.1325	-55.8873	-187.785	-35.8373	-70.1268	-202.503	-10.9169	17.8013	-198.486	-24.4048	44.2735	-176.069	7.21125	31.5453	
52	0.433333	-141.387	-4.52089	23.4036	-126.984	-3.47858	-3.98224	-120.553	1.5155	-40.2887	-123.764	-5.39444	-62.4105	-180.711	22.9	-36.3873	-175.879	20.9469	-67.7821	-159.59	3.00277	-87.7055	-200.8	15.762	-43.7901	-193.265	15.2663	-72.4481	-169.251	-9.02252	-92.3767	-208.963	-4.39072	-35.1344	-202.914	-5.26011	-66.7847	-184.835	-26.6141	-83.4814	-213.508	-24.575	-28.559	-206.54	-26.1413	-56.178	-189.101	-39.6305	-74.5063	-203.224	-11.3636	15.9588	-200.335	-24.5932	46.7742	-177.776	7.76126	29.4758	
53	0.441667	-138.979	-3.85953	25.435	-127.398	-0.14107	-8.81154	-120.635	1.65483	-39.4011	-124.717	-5.31707	-60.1777	-180.752	24.2836	-35.5143	-174.965	22.4161	-68.3454	-159.991	8.70641	-86.4222	-197.696	18.9418	-43.059	-192.748	13.7984	-75.2273	-171.76	-9.91132	-92.8183	-206.165	0.944677	-36.6263	-204.918	-5.21836	-65.3492	-186.289	-21.1476	-83.0942	-212.029	-21.3025	-26.9963	-206.833	-22.877	-54.7072	-191.256	-35.0383	-72.5971	-206.554	-12.8615	20.7219	-199.888	-22.0209	45.0882	-177.516	9.12699	29.6626	
54	0.45	-140.39	-1.8518	21.7212	-128.398	-2.11633	-6.10892	-121.215	0.564197	-37.7343	-125.077	-6.13314	-59.5601	-181.162	24.2358	-36.3831	-174.831	21.5706	-70.908	-160.713	8.03129	-86.9588	-201.339	15.1505	-41.2822	-192.006	12.8611	-74.8887	-170.399	-9.574	-93.7111	-209.369	-2.91365	-35.6342	-205.633	-7.86182	-67.6127	-185.503	-22.2211	-82.5204	-213.057	-21.1454	-29.7415	-208.106	-23.7157	-54.7268	-189.716	-35.3469	-70.6433	-206.928	-11.5367	18.6463	-199.54	-25.151	45.122	-176.431	6.74429	30.2634	
55	0.458333	-142.062	-4.89805	22.3893	-127.755	-2.41659	-9.21455	-124.299	-3.00112	-37.1779	-123.264	-7.06567	-63.3669	-181.893	22.3476	-35.0394	-176.227	19.5997	-68.4448	-161.159	4.74763	-87.9243	-199.246	16.0228	-41.4507	-191.887	13.1996	-75.3593	-174.661	-10.27	-92.5775	-207.089	-1.35457	-33.8443	-204.141	-8.51402	-69.4698	-185.546	-24.6104	-83.0138	-215.091	-22.9123	-28.2443	-209.808	-23.1189	-52.6259	-190.52	-40.0182	-72.7154	-203.793	-10.8818	18.5728	-198.306	-20.7831	43.635	-178.265	6.19252	33.4216	
56	0.466667	-141.516	-3.36602	20.418	-126.777	-3.23705	-9.25969	-121.306	-3.49471	-39.1676	-122.626	-10.3865	-61.7088	-179.89	23.1728	-39.4726	-172.822	19.2716	-69.5405	-158.662	4.0594	-87.6457	-199.021	15.034	-45.0476	-191.272	6.94529	-76.9308	-171.371	-19.5117	-91.8778	-207.645	-3.54313	-35.273	-203.512	-11.9154	-69.3084	-181.544	-29.3144	-82.1203	-213.864	-23.4026	-24.8363	-212.639	-24.5271	-51.6371	-195.364	-40.8661	-72.1317	-209.304	-10.6831	14.8	-201.799	-21.8576	46.3122	-177.022	7.44668	27.807	
57	0.475	-142.714	-6.17884	23.0297	-129.414	-6.35638	-6.77601	-125.872	-8.58126	-39.2832	-126.476	-15.2534	-60.384	-177.114	19.676	-45.3895	-171.573	11.2069	-73.3787	-154.441	-7.84138	-88.1641	-198.373	11.6051	-47.9668	-190.546	3.57043	-76.3971	-166.756	-29.0797	-87.3358	-207.778	-4.27461	-42.4314	-201.55	-14.3969	-70.5261	-182.78	-35.3984	-78.1132	-217.353	-24.7281	-26.8568	-216.385	-29.8376	-55.9194	-201.973	-43.4109	-73.3001	-207.799	-11.6454	15.0225	-200.11	-15.6658	43.2626	-178.892	7.22406	28.0984	
58	0.483333	-139.841	-4.72523	20.9903	-129.523	-8.95321	-9.05515	-121.648	-11.1285	-36.7277	-123.913	-18.6172	-62.7421	-175.792	16.1129	-47.0039	-169.061	5.18092	-76.2654	-150.81	-23.1405	-84.8318	-196.43	7.67277	-50.1852	-184.743	-7.95244	-81.4677	-163.812	-39.4159	-79.5351	-208.49	-6.96509	-42.4435	-201.255	-22.3327	-71.358	-181.697	-43.9	-72.3119	-220.771	-24.1745	-28.83	-219.873	-28.3969	-54.8614	-204.619	-46.6851	-73.9297	-205.908	-4.63549	9.40628	-202.697	-13.5896	41.2406	-179.692	9.40118	22.4603	
59	0.491667	-140.758	-4.84681	19.3965	-130.228	-8.96912	-10.6532	-122.178	-11.2188	-38.4467	-124.803	-18.7741	-63.4291	-173.786	14.0033	-55.9164	-162.519	-4.1163	-80.2552	-152.032	-29.4813	-74.9979	-196.599	5.3555	-58.0388	-184.678	-12.2728	-81.6138	-168.914	-44.7411	-65.4333	-209.537	-7.62528	-49.6122	-198.434	-27.5374	-71.757	-179.383	-52.1999	-58.1872	-222.576	-21.7994	-29.086	-224.773	-29.1681	-59.5857	-212.724	-44.1543	-73.0504	-210.758	-3.86998	10.6279	-206.934	-7.70815	37.7884	-176.473	13.7292	18.4487	
60	0.5	-142.147	-3.67145	17.6	-131.806	-6.64679	-10.8006	-120.674	-7.08984	-42.7804	-122.53	-12.8528	-63.3781	-173.755	11.8589	-53.5629	-165.52	-10.4164	-78.4243	-152.48	-36.5434	-56.9724	-191.16	4.88425	-60.6958	-183.152	-20.0633	-78.4763	-164.941	-44.4095	-47.5223	-209.279	-7.19056	-51.8049	-200.359	-32.8508	-68.3689	-181.37	-48.3733	-48.5808	-223.794	-14.7167	-32.6961	-230.411	-21.6187	-58.5863	-223.647	-37.606	-78.6805	-209.114	3.5528	3.01428	-204.889	-2.48723	36.1641	-180.086	12.1552	15.5596	
61	0.508333	-141.159	-3.67498	14.5803	-128.058	-5.8355	-12.0874	-117.162	-6.09558	-39.7233	-116.445	-9.7309	-66.4111	-172.444	10.1946	-56.0277	-162.011	-17.5629	-74.2703	-149.971	-32.1615	-45.6483	-188.287	1.62938	-63.4118	-178.805	-27.9644	-71.5228	-168.067	-38.0292	-35.031	-209.007	-6.90822	-52.5409	-196.579	-32.5201	-66.1935	-184.128	-44.4564	-36.3466	-227.255	-8.336	-36.7555	-228.883	-12.8345	-62.9158	-221.473	-27.4143	-81.9239	-209.38	6.96792	0.639322	-204.926	0.96279	30.6214	-173.332	17.5356	15.7928	
